<?xml version="1.0" standalone="no"?>
<!DOCTYPE svg PUBLIC "-//W3C//DTD SVG 20010904//EN"
 "http://www.w3.org/TR/2001/REC-SVG-20010904/DTD/svg10.dtd">
<svg version="1.0" xmlns="http://www.w3.org/2000/svg"
 width="154.000000pt" height="154.000000pt" viewBox="0 0 154.000000 154.000000"
 preserveAspectRatio="xMidYMid meet">
<metadata>
Created by potrace 1.14, written by Peter Selinger 2001-2017
</metadata>
<g transform="translate(0.000000,154.000000) scale(0.100000,-0.100000)"
fill="#000000" stroke="none">
<path d="M593 1525 c-175 -48 -348 -182 -442 -346 -242 -419 -64 -961 371
-1133 92 -36 156 -47 268 -45 196 3 366 79 505 225 221 232 278 591 141 890
-88 191 -286 360 -481 409 -76 19 -290 19 -362 0z m-89 -250 c-4 -8 -8 -15
-10 -15 -2 0 -4 7 -4 15 0 8 4 15 10 15 5 0 7 -7 4 -15z m-234 -136 c0 -6 -4
-7 -10 -4 -5 3 -10 11 -10 16 0 6 5 7 10 4 6 -3 10 -11 10 -16z m153 -214 c-5
-13 -23 -22 -23 -11 0 15 14 35 21 31 4 -3 6 -12 2 -20z m567 -130 c-7 -8 -14
-15 -15 -15 -2 0 -5 7 -9 15 -4 10 1 15 16 15 17 0 18 -2 8 -15z m-520 -672
c0 -1 -11 2 -25 9 -13 6 -22 15 -19 19 4 7 44 -19 44 -28z m636 1 c-11 -7 -22
-12 -25 -9 -2 3 4 12 15 19 10 8 21 12 24 9 3 -2 -4 -11 -14 -19z"/>
</g>
</svg>
